# xmcd
#
# Track frame offsets:
#	150
#	10940
#	28755
#	43374
#	60771
#	76086
#	93339
#	114632
#	126152
#	144898
#	164472
#	176841
#	189913
#	213461
#	224608
#	236946
#	247043
#	259733
#	272987
#
# Disc length: 3895 seconds
#
# Revision: 0
# Processed by: cddbd v1.5PL3 Copyright (c) Steve Scherf et al.
# Submitted via: AudioConverter v4.1 Copyright (c) Dennis Rebentrost
#
DISCID=170f3513
DTITLE=the Brown Mountain Lights - Late Show at the Cave
DYEAR=2002
DGENRE=Country
TTITLE0=the more I think
TTITLE1=Little Things
TTITLE2=Maryville
TTITLE3=Tumbleweed
TTITLE4=Take My Eyes
TTITLE5=When it comes to that
TTITLE6=Even her Wildest friends
TTITLE7=Cradle to Grave
TTITLE8=you and your kind
TTITLE9=Blacktop Tar
TTITLE10=NOTHING IS WRONG
TTITLE11=Crossing Fingers
TTITLE12=Snakedancing with Jenna Lee
TTITLE13=Tennessee Saturday Night
TTITLE14=Holding you at arms length
TTITLE15=100 years from Now
TTITLE16=thibodaux
TTITLE17=Get it on, Brother
TTITLE18=Rose of Sharon
EXTD=
EXTT0=
EXTT1=
EXTT2=
EXTT3=
EXTT4=
EXTT5=
EXTT6=
EXTT7=
EXTT8=
EXTT9=
EXTT10=
EXTT11=
EXTT12=
EXTT13=
EXTT14=
EXTT15=
EXTT16=
EXTT17=
EXTT18=
PLAYORDER=
